<svg width="32" height="28" viewBox="0 0 32 28" fill="none" xmlns="http://www.w3.org/2000/svg">
<path d="M29.3333 4.66803H22.6667V3.33466C22.6667 1.86397 21.4708 0.667969 20 0.667969H12C10.5293 0.667969 9.33331 1.86391 9.33331 3.33466V4.66797H2.66669C1.19594 4.66803 0 5.86397 0 7.33466V11.3347C0 12.8054 1.19594 14.0014 2.66669 14.0014H13.3334V13.3347C13.3334 12.9662 13.6316 12.668 14.0001 12.668H18.0001C18.3686 12.668 18.6667 12.9662 18.6667 13.3347V14.0014H29.3334C30.8041 14.0014 32 12.8054 32 11.3347V7.33466C32 5.86397 30.8041 4.66803 29.3333 4.66803ZM20 4.66803H12V3.33466H20V4.66803Z" fill="#D7DAE3"/>
<path d="M31.6302 14.7188C31.403 14.6062 31.1315 14.6323 30.9309 14.7846C30.457 15.1433 29.9049 15.3328 29.3333 15.3328H18.6667V17.3328C18.6667 17.7013 18.3685 17.9995 18 17.9995H14C13.6315 17.9995 13.3333 17.7013 13.3333 17.3328V15.3328H2.66669C2.09506 15.3328 1.543 15.1433 1.069 14.7846C0.867813 14.631 0.597 14.6049 0.36975 14.7188C0.14325 14.8315 0 15.0626 0 15.3159V24.6662C0 26.1369 1.19594 27.3329 2.66669 27.3329H29.3334C30.8041 27.3329 32.0001 26.1369 32.0001 24.6662V15.3159C32 15.0626 31.8568 14.8315 31.6302 14.7188Z" fill="#9AA6C8"/>
</svg>
